<mxfile host="app.diagrams.net" agent="Mozilla/5.0 (Windows NT 10.0; Win64; x64) AppleWebKit/537.36 (KHTML, like Gecko) Chrome/128.0.0.0 Safari/537.36 OPR/114.0.0.0" version="25.0.1">
  <diagram name="Page-1" id="J6qU1CufO3tT0paZhnID">
    <mxGraphModel dx="831" dy="743" grid="0" gridSize="10" guides="1" tooltips="1" connect="1" arrows="1" fold="1" page="0" pageScale="1" pageWidth="827" pageHeight="1169" math="0" shadow="0">
      <root>
        <mxCell id="0" />
        <mxCell id="1" parent="0" />
        <mxCell id="n1ISIKl0yZO8UXlDY4mg-5" value="" style="edgeStyle=orthogonalEdgeStyle;rounded=0;orthogonalLoop=1;jettySize=auto;html=1;" parent="1" source="n1ISIKl0yZO8UXlDY4mg-1" target="n1ISIKl0yZO8UXlDY4mg-2" edge="1">
          <mxGeometry relative="1" as="geometry" />
        </mxCell>
        <mxCell id="n1ISIKl0yZO8UXlDY4mg-1" value="Start" style="ellipse;whiteSpace=wrap;html=1;" parent="1" vertex="1">
          <mxGeometry x="-40" y="100" width="100" height="60" as="geometry" />
        </mxCell>
        <mxCell id="n1ISIKl0yZO8UXlDY4mg-6" value="" style="edgeStyle=orthogonalEdgeStyle;rounded=0;orthogonalLoop=1;jettySize=auto;html=1;" parent="1" source="n1ISIKl0yZO8UXlDY4mg-2" target="n1ISIKl0yZO8UXlDY4mg-3" edge="1">
          <mxGeometry relative="1" as="geometry" />
        </mxCell>
        <mxCell id="n1ISIKl0yZO8UXlDY4mg-2" value="Number" style="shape=parallelogram;perimeter=parallelogramPerimeter;whiteSpace=wrap;html=1;fixedSize=1;" parent="1" vertex="1">
          <mxGeometry x="-40" y="200" width="100" height="40" as="geometry" />
        </mxCell>
        <mxCell id="n1ISIKl0yZO8UXlDY4mg-7" value="" style="edgeStyle=orthogonalEdgeStyle;rounded=0;orthogonalLoop=1;jettySize=auto;html=1;" parent="1" source="n1ISIKl0yZO8UXlDY4mg-3" target="n1ISIKl0yZO8UXlDY4mg-4" edge="1">
          <mxGeometry relative="1" as="geometry" />
        </mxCell>
        <mxCell id="n1ISIKl0yZO8UXlDY4mg-3" value="total = 0&lt;br&gt;i = 1" style="rounded=0;whiteSpace=wrap;html=1;" parent="1" vertex="1">
          <mxGeometry x="-40" y="280" width="100" height="40" as="geometry" />
        </mxCell>
        <mxCell id="n1ISIKl0yZO8UXlDY4mg-10" value="" style="edgeStyle=orthogonalEdgeStyle;rounded=0;orthogonalLoop=1;jettySize=auto;html=1;" parent="1" source="n1ISIKl0yZO8UXlDY4mg-4" edge="1">
          <mxGeometry relative="1" as="geometry">
            <mxPoint x="10" y="460" as="targetPoint" />
          </mxGeometry>
        </mxCell>
        <mxCell id="n1ISIKl0yZO8UXlDY4mg-33" value="true" style="edgeLabel;html=1;align=center;verticalAlign=middle;resizable=0;points=[];" parent="n1ISIKl0yZO8UXlDY4mg-10" vertex="1" connectable="0">
          <mxGeometry x="-0.1689" y="-1" relative="1" as="geometry">
            <mxPoint as="offset" />
          </mxGeometry>
        </mxCell>
        <mxCell id="n1ISIKl0yZO8UXlDY4mg-30" value="" style="edgeStyle=orthogonalEdgeStyle;rounded=0;orthogonalLoop=1;jettySize=auto;html=1;" parent="1" source="n1ISIKl0yZO8UXlDY4mg-4" target="n1ISIKl0yZO8UXlDY4mg-29" edge="1">
          <mxGeometry relative="1" as="geometry" />
        </mxCell>
        <mxCell id="n1ISIKl0yZO8UXlDY4mg-34" value="false" style="edgeLabel;html=1;align=center;verticalAlign=middle;resizable=0;points=[];" parent="n1ISIKl0yZO8UXlDY4mg-30" vertex="1" connectable="0">
          <mxGeometry x="-0.0437" y="2" relative="1" as="geometry">
            <mxPoint as="offset" />
          </mxGeometry>
        </mxCell>
        <mxCell id="n1ISIKl0yZO8UXlDY4mg-4" value="i &amp;lt;= number" style="rhombus;whiteSpace=wrap;html=1;" parent="1" vertex="1">
          <mxGeometry x="-40" y="360" width="100" height="60" as="geometry" />
        </mxCell>
        <mxCell id="n1ISIKl0yZO8UXlDY4mg-16" value="" style="edgeStyle=orthogonalEdgeStyle;rounded=0;orthogonalLoop=1;jettySize=auto;html=1;entryX=0.5;entryY=0;entryDx=0;entryDy=0;" parent="1" target="n1ISIKl0yZO8UXlDY4mg-23" edge="1">
          <mxGeometry relative="1" as="geometry">
            <mxPoint x="10" y="500" as="sourcePoint" />
            <mxPoint x="10" y="550" as="targetPoint" />
          </mxGeometry>
        </mxCell>
        <mxCell id="n1ISIKl0yZO8UXlDY4mg-24" value="true" style="edgeLabel;html=1;align=center;verticalAlign=middle;resizable=0;points=[];" parent="n1ISIKl0yZO8UXlDY4mg-16" vertex="1" connectable="0">
          <mxGeometry x="0.2876" y="-1" relative="1" as="geometry">
            <mxPoint as="offset" />
          </mxGeometry>
        </mxCell>
        <mxCell id="n1ISIKl0yZO8UXlDY4mg-26" value="" style="edgeStyle=orthogonalEdgeStyle;rounded=0;orthogonalLoop=1;jettySize=auto;html=1;" parent="1" source="n1ISIKl0yZO8UXlDY4mg-22" target="n1ISIKl0yZO8UXlDY4mg-25" edge="1">
          <mxGeometry relative="1" as="geometry" />
        </mxCell>
        <mxCell id="n1ISIKl0yZO8UXlDY4mg-27" value="false" style="edgeLabel;html=1;align=center;verticalAlign=middle;resizable=0;points=[];" parent="n1ISIKl0yZO8UXlDY4mg-26" vertex="1" connectable="0">
          <mxGeometry x="-0.2816" y="-1" relative="1" as="geometry">
            <mxPoint as="offset" />
          </mxGeometry>
        </mxCell>
        <mxCell id="n1ISIKl0yZO8UXlDY4mg-22" value="number % i === 0" style="rhombus;whiteSpace=wrap;html=1;" parent="1" vertex="1">
          <mxGeometry x="-56.5" y="460" width="133" height="60" as="geometry" />
        </mxCell>
        <mxCell id="n1ISIKl0yZO8UXlDY4mg-23" value="total = total + 1" style="rounded=0;whiteSpace=wrap;html=1;" parent="1" vertex="1">
          <mxGeometry x="-40" y="558" width="100" height="40" as="geometry" />
        </mxCell>
        <mxCell id="n1ISIKl0yZO8UXlDY4mg-28" style="edgeStyle=orthogonalEdgeStyle;rounded=0;orthogonalLoop=1;jettySize=auto;html=1;exitX=0.5;exitY=0;exitDx=0;exitDy=0;entryX=1;entryY=0.5;entryDx=0;entryDy=0;" parent="1" source="n1ISIKl0yZO8UXlDY4mg-25" target="n1ISIKl0yZO8UXlDY4mg-4" edge="1">
          <mxGeometry relative="1" as="geometry" />
        </mxCell>
        <mxCell id="n1ISIKl0yZO8UXlDY4mg-25" value="i = i + 1" style="rounded=0;whiteSpace=wrap;html=1;" parent="1" vertex="1">
          <mxGeometry x="128" y="470" width="100" height="40" as="geometry" />
        </mxCell>
        <mxCell id="n1ISIKl0yZO8UXlDY4mg-32" value="" style="edgeStyle=orthogonalEdgeStyle;rounded=0;orthogonalLoop=1;jettySize=auto;html=1;" parent="1" source="n1ISIKl0yZO8UXlDY4mg-29" target="n1ISIKl0yZO8UXlDY4mg-31" edge="1">
          <mxGeometry relative="1" as="geometry" />
        </mxCell>
        <mxCell id="n1ISIKl0yZO8UXlDY4mg-29" value="print sum" style="shape=parallelogram;perimeter=parallelogramPerimeter;whiteSpace=wrap;html=1;fixedSize=1;" parent="1" vertex="1">
          <mxGeometry x="-191" y="370" width="100" height="40" as="geometry" />
        </mxCell>
        <mxCell id="n1ISIKl0yZO8UXlDY4mg-31" value="End" style="ellipse;whiteSpace=wrap;html=1;" parent="1" vertex="1">
          <mxGeometry x="-191" y="453" width="100" height="60" as="geometry" />
        </mxCell>
      </root>
    </mxGraphModel>
  </diagram>
</mxfile>
